<svg xmlns="http://www.w3.org/2000/svg" viewBox="0 0 34 34">
    <defs/>
    <g fill="none" fill-rule="evenodd">
        <circle cx="17" cy="17" r="17" fill="#323232"/>
        <g fill="#FFF" fill-rule="nonzero">
            <path d="M26.14 12.64a7.01 7.01 0 00-.44-2.33 4.68 4.68 0 00-1.11-1.7 4.72 4.72 0 00-1.7-1.1c-.61-.24-1.31-.4-2.33-.45A65.5 65.5 0 0016.6 7c-2.6 0-2.93.01-3.96.06a7.02 7.02 0 00-2.32.44c-.65.25-1.23.62-1.7 1.11a4.73 4.73 0 00-1.11 1.7c-.24.61-.4 1.31-.45 2.33A65.5 65.5 0 007 16.6c0 2.6.01 2.93.06 3.96.04 1.02.2 1.72.44 2.33.25.64.62 1.22 1.11 1.7.48.48 1.06.86 1.7 1.1.61.24 1.31.4 2.33.45 1.02.05 1.35.06 3.96.06 2.6 0 2.93-.01 3.95-.06a7.01 7.01 0 002.33-.45 4.91 4.91 0 002.81-2.8c.24-.62.4-1.31.45-2.33.04-1.03.05-1.35.05-3.96 0-2.6 0-2.93-.05-3.96zm-1.72 7.84c-.05.94-.2 1.45-.33 1.78-.33.84-1 1.5-1.83 1.83-.34.13-.84.28-1.78.32-1.01.05-1.31.06-3.88.06-2.56 0-2.86-.01-3.87-.06a5.26 5.26 0 01-1.79-.32c-.41-.16-.79-.4-1.1-.72a2.98 2.98 0 01-.71-1.1 5.28 5.28 0 01-.33-1.78 67.55 67.55 0 01-.06-3.88c0-2.56.01-2.87.06-3.88.04-.94.2-1.44.33-1.78.15-.42.4-.8.72-1.1.3-.32.68-.57 1.1-.72.34-.13.85-.29 1.78-.33a67.7 67.7 0 013.88-.06c2.56 0 2.87.02 3.88.06.93.04 1.44.2 1.78.33.41.15.8.4 1.1.72.32.3.56.68.72 1.1.13.34.28.85.33 1.78.04 1.01.05 1.32.05 3.88 0 2.56-.01 2.86-.05 3.87z"/>
            <path d="M16.6 11.67a4.93 4.93 0 100 9.86 4.93 4.93 0 000-9.86zm0 8.13a3.2 3.2 0 110-6.4 3.2 3.2 0 010 6.4zM22.88 11.47a1.15 1.15 0 11-2.3 0 1.15 1.15 0 012.3 0z"/>
        </g>
    </g>
</svg>