<svg xmlns="http://www.w3.org/2000/svg" viewBox="0 0 507 202"><defs/><g fill="#323232" fill-rule="nonzero"><path d="M30.4 199.5V197c-4.7-.5-7.7-1.4-9-2.8-2-2.1-3.1-6.7-3.1-13.8v-51.6l32.5 70.6h1.8l33.1-73.6v58c0 5.5-.6 9-1.9 10.4-1.3 1.5-4.5 2.4-9.8 2.8v2.4h36.3V197c-4.8-.4-7.9-1.3-9.2-2.6-1.4-1.3-2.1-4.3-2.1-9V128c0-4.6.7-7.6 2-9 1.4-1.4 4.5-2.3 9.3-2.6V114H84.5L56 179.2l-30-65.2H.3v2.4c5.2.2 8.6 1 10 2.5 1.5 1.4 2.3 4.4 2.3 9v52.6c0 6.8-.8 11.1-2.3 13-1.5 1.9-5 3.1-10.3 3.6v2.4h30.4zm110.6 2a24 24 0 0017.4-6.8c4.7-4.6 7.9-9.5 9.6-14.9l-2.2-.7a34.8 34.8 0 01-8.4 9.8c-3 2.3-6.7 3.5-11 3.5-5.5 0-10.3-2.2-14.2-6.7-4-4.4-6.2-11.6-6.6-21.3h39.9c0-7.5-2.2-13.3-6.7-17.4a22.2 22.2 0 00-15.5-6.2c-8 0-14.5 3-19.5 9.2-5 6.2-7.5 13.5-7.5 21.9 0 7.8 2.2 14.6 6.5 20.6 4.3 6 10.3 9 18.2 9zm12-41.8h-26.7c.5-3.4 1.5-6.3 2.9-8.5 2.5-4.3 6.2-6.4 11-6.4 5 0 8.4 1.8 10.5 5.5 1.1 2 2 5.2 2.4 9.4zm49.8 39.8v-1.7c-3.8 0-6.2-.6-7.3-1.8-1.2-1.2-1.7-3.4-1.7-6.6V155c1.9-2.2 4-4 6.6-5.5 2.5-1.4 5-2 7.6-2 4.5 0 7.4 2 8.8 6 .9 2.5 1.3 7 1.3 13.4v17.5c0 5.6-.6 9-1.7 10.5-1 1.4-3.6 2.3-7.6 2.8v1.7h29v-1.7c-3.9 0-6.4-1-7.6-2.8a13.6 13.6 0 01-1.8-7.7v-32c2.3-2.4 4.2-4 5.8-5 2.7-1.9 5.4-2.8 8.1-2.8 4.6 0 7.6 1.7 9.2 5.2.9 1.9 1.3 4.9 1.3 9v27c0 3.4-.5 5.7-1.7 6.8-1.2 1.2-3.6 1.9-7.3 2.2v1.8h28.6v-1.7c-3.5-.3-5.9-1-7.2-2-1.3-1.1-2-3.1-2-6.1v-26c0-6.7-.6-11.6-2-14.7-2.2-5.4-6.8-8.2-13.6-8.2-4.1 0-8.2 1.3-12.2 4-2.4 1.4-5 3.7-8.2 6.9a19 19 0 00-3.4-6.5c-2.5-3-6-4.4-10.3-4.4-3.2 0-6.4.7-9.4 2.2-3 1.4-6.6 4-10.8 7.8v-8.5-1.2c-.1-.2-.3-.3-.5-.3s-2.2.7-6 2.2l-8 2.9-4.6 1.5v2.2c.6-.2 1.1-.4 1.6-.4l2-.2c1.9 0 3.2.5 4 1.5.9 1 1.3 3 1.3 6V189c0 3.7-.9 6.1-2.5 7.3-1.1.8-3.3 1.4-6.6 1.6v1.7h28.8zm101.6 2a26 26 0 0020.6-9.2 32 32 0 008-21.7 29 29 0 00-8.2-21.6 28.4 28.4 0 00-20.8-8.2 27 27 0 00-20.6 8.6c-5.4 5.8-8 12.8-8 21 0 9 2.8 16.4 8.4 22.2a27.4 27.4 0 0020.6 8.9zm2-3c-6 0-10.7-3.3-14-9.7-3.4-6.5-5.1-13.5-5.1-21 0-9.3 2.1-15.9 6.3-19.7 2.4-2.2 5.3-3.3 8.6-3.3 6.1 0 10.8 3.2 14 9.6a45.1 45.1 0 014.9 20.6c0 7-1.3 12.7-3.8 17a12 12 0 01-10.9 6.5zm62.6 1v-2.1c-4 0-6.7-.6-8.4-2-1.6-1.4-2.5-4-2.5-7.6v-28.5c0-2.5 1-5 3.2-7.4 2.2-2.3 4-3.5 5.4-3.5 1 0 2.2.7 3.8 2.2 1.6 1.5 3.2 2.2 4.8 2.2a5 5 0 004-1.8c1-1.2 1.4-2.6 1.4-4.3 0-2-.6-3.6-2-4.9-1.3-1.3-3-2-5.2-2a12 12 0 00-7.7 3.3c-2.5 2-5.1 5-7.8 8.7v-10.3l-.1-1.4c0-.2-.2-.3-.5-.3a112.8 112.8 0 01-11.7 4.6c-2.5 1-5 1.8-7.4 2.6v2.1a32.2 32.2 0 013.8-.5c2.1 0 3.5.9 4.3 2.6.8 1.8 1.2 4.8 1.2 9v28.5c0 3.4-.7 5.6-2 6.6-1.2 1-3.7 1.8-7.6 2v2.2h31zm29.1-74.6c1.8 0 3.3-.6 4.6-1.9a6.2 6.2 0 002-4.5c0-1.8-.7-3.4-2-4.6a6.2 6.2 0 00-4.6-2c-1.8 0-3.3.7-4.6 2a6.3 6.3 0 00-1.8 4.6c0 1.8.6 3.3 1.8 4.5a6.2 6.2 0 004.6 2zm15.5 74.6v-1.8c-4.1-.3-6.8-1.1-8-2.3-1.1-1.3-1.7-4.3-1.7-9.1v-45.5l-.1-1c-.4 0-1.1.3-2.3.8-3 1.2-8 3-15.5 5.4l-2.7 1v1.9a73.7 73.7 0 015.2-1.1c2 0 3.4.8 4 2.6.4 1 .6 3 .6 5.7v30.2c0 5-.6 8-1.8 9-1.2 1.2-4 2-8.6 2.4v1.8h30.9zm21.4 1c3.4 0 7-1.2 11-3.4 2.2-1.4 5-3.4 8.2-6.2.1 2.6.8 4.8 2.1 6.6 1.3 1.9 3.4 2.8 6.3 2.8 2.4 0 4.8-.8 7.2-2.4 1.6-1 3-2.4 4.4-4v-3.3a24.7 24.7 0 01-3.3 2.1c-.6.3-1.4.5-2.4.5-1.8 0-2.9-.9-3.4-2.5-.4-1-.6-2.6-.6-5v-25.3c0-5.5-.7-9.7-2.3-12.6-3-5.3-8.5-8-16.7-8-7 0-12.4 1.6-16 4.8-3.8 3.3-5.6 6.3-5.6 9.3 0 1.5.5 2.9 1.5 4.1 1 1.2 2.5 1.9 4.4 1.9a6 6 0 003.2-.9c1.6-.9 2.3-2.5 2.3-4.9 0-.3 0-1-.3-2.3a17 17 0 01-.3-2.5c0-2 1-3.6 3-4.7 1.9-1 4-1.6 6-1.6 4.6 0 7.6 1.4 9 4.2.9 1.7 1.3 4.7 1.3 9v5.3a139.4 139.4 0 00-23.3 10.3c-6.1 4-9.2 9.1-9.2 15.2a13.3 13.3 0 0013.5 13.5zm6.6-8c-2 0-3.8-.6-5.4-1.7-2.5-1.8-3.8-4.6-3.8-8.3 0-4.7 3-9 9-12.6 3.2-1.9 7.1-3.6 12-5.2v19.7c0 2.3-1.3 4.3-3.9 5.8a15 15 0 01-7.9 2.3zm65.4 7v-1.8c-4-.3-6.6-1-7.8-2-1.3-1.1-2-3.5-2-7.1V113v-1.6c0-.3-.2-.4-.5-.4a483 483 0 01-20.5 6v2.1a49.7 49.7 0 014.5-.7c2.6 0 4.3.9 5.1 2.6.5 1 .7 3 .7 5.8v61.5c0 3.5-.7 5.9-2 7-1.4 1.2-4.1 2-8 2.4v1.8H507zM98.7 101a44 44 0 0024.8-7.4c4.1-2.7 9-7.2 14.5-13.3l-4.2-3.5A75.9 75.9 0 01121.1 88c-6.2 4-13 6.1-20.2 6.1-11.9 0-20-6.1-24.4-18.3a74.9 74.9 0 01-3.5-25c0-13.7 2-24.7 6-32.8C83 9.8 89.7 5.8 99 5.8c8.4 0 15.9 3.8 22.5 11.4a77 77 0 0110.4 17h3.6v-33h-4c-.2 1.5-.9 2.9-2 4.3-1 1.4-2.5 2-4.3 2-.7 0-4-1-10-3.2S103.3 1 97.4 1A48.1 48.1 0 0048 51.7c0 15.4 5.2 27.8 15.6 36.9 9.5 8.3 21.1 12.4 35 12.4zm100.4 0a48.3 48.3 0 0050-50 48.3 48.3 0 00-50-50A48.2 48.2 0 00149 51.8a48.2 48.2 0 0050 49.2zm0-5c-10.7 0-18-6.3-22-18.8a91.7 91.7 0 01-3.1-26.7c0-10.8 1-19.6 3.1-26.4 4-12.7 11.3-19.1 22-19.1 7.6 0 13.7 3.8 18.2 11.5 4.5 7.6 6.7 19 6.7 34 0 11-1 19.8-3.2 26.7-4 12.5-11.2 18.8-21.8 18.8zm109.3 5l32-83c1.5-4 3.2-7 4.9-8.6 1.7-1.6 4.3-2.6 7.7-3V3h-29.8v3.6c4.8.3 8 .8 9.6 1.5 1.6.6 2.3 2.3 2.3 5a38.5 38.5 0 01-2 7.6h.1L315 68.2h-.8l-21.2-52a9.5 9.5 0 01-.9-4.1c0-2.3.8-3.8 2.3-4.3 1.4-.6 4.7-1 9.7-1.3V3h-47v3.4c3.2.3 5.6 1.2 7.2 2.7 1.5 1.5 3 4 4.4 7.3l36 84.6h3.8zm98.6-3v-3.6c-4.4 0-7.7-.6-9.9-2-2.1-1.3-3.2-4-3.2-7.9v-68c0-4.2 1.3-7 4-8.4 1.7-.8 4.7-1.3 9.1-1.5V3h-49v3.6c4.2.2 7.1.7 8.8 1.5 2.7 1.5 4 4.3 4 8.4v68c0 4.2-1.4 7-4.2 8.5-1.8.9-4.6 1.3-8.6 1.4V98h49zm49.4 0c16 0 28.7-5 38.1-14.9A45.4 45.4 0 00507 50.8c0-14.2-4.1-25.5-12.4-34C485.5 7.7 472.3 3 454.9 3H412v3.6c3.7.3 6.3.9 7.8 1.7 2.6 1.4 4 4 4 7.5v69.4c0 3.7-1.4 6.3-4.2 7.7-1.5.8-4 1.3-7.6 1.5V98h44.4zm-1.8-5c-3 0-5-.6-6-2-1-1.2-1.5-3.3-1.6-6.2V15.2c0-2.9.4-4.8 1-5.9 1.2-1.5 3.6-2.3 7.2-2.3 11 0 18.9 5.8 23.5 17.3a69.3 69.3 0 014.3 25.8c0 16.8-2.7 28.1-8 34-5.3 6-12.1 8.9-20.4 8.9zM35.5 77.8h-1c-.1 2.2-.4 3.5-1 4.2-.4.6-1.7 1-3.7 1H2.7v-3c0-3 .4-5 1.3-6 .8-.9 2.7-1.6 5.5-2.3v-1.2l-9 .3v29.4l9 .3v-1.3C6.6 98.7 4.8 98 4 97c-.9-1-1.3-3-1.3-6v-2.8h26.4c2.3 0 3.8.3 4.3.8.6.5 1 2 1.1 4.1h1V77.8zm0-24h-1c-.1 2-.5 3.2-1 3.8-.6.6-1.8 1-3.7 1h-11v-16h10.3c2.3 0 3.8.2 4.3.7.6.5 1 1.8 1.1 3.9h1V32.5h-1c-.1 2-.5 3.2-1 3.8-.6.5-1.8.8-3.7.8H6.2c-1.9 0-3-.3-3.7-.8-.5-.6-.9-1.9-1-3.8h-1v14.7h1c.1-2 .5-3.3 1-3.8.6-.6 1.8-.9 3.7-.9h10.3v16H6.2c-1.9 0-3-.3-3.7-.9-.5-.6-.9-1.8-1-3.8h-1v14.7h1c.1-2 .5-3.2 1-3.8.6-.5 1.8-.8 3.7-.8h23c2.2 0 3.7.2 4.2.7.5.6 1 1.8 1.1 3.9h1V53.8zM36 2.4L27 0v1.5c3 1.3 5 2.9 5.8 4.6a20 20 0 011.1 7.9c0 3.3 0 5.3-.3 6-.1.6-.8 1-1.8 1H18.7v-8.2c0-2.2.3-3.7 1-4.3.7-.6 2-1.1 4-1.5V5.8H11.6V7c2 .4 3.4.9 4 1.5.8.6 1.1 2 1.1 4.3V21H4.8c-.7 0-1.2-.1-1.4-.3-.3-.2-.4-.7-.4-1.5v-7.1C3 9 3.4 7 4 6c.7-1 2.3-1.6 4.6-2V2.7L1 3V31h1c.1-2 .5-3.2 1-3.8.6-.6 1.9-.8 3.7-.8h23.6c2 0 3.2.2 3.7.8.5.6.8 1.9 1 3.8h1V2.4z"/></g></svg>