<svg xmlns="http://www.w3.org/2000/svg" viewBox="0 0 102 45"><defs/><g fill="#323232" fill-rule="nonzero"><path d="M20.76 44.06c.4 0 .6-.1.6-.29 0-.18-.2-.28-.57-.28h-.17c-.98 0-1.6-.08-1.84-.25-.15-.13-.22-.58-.22-1.33V28.5c0-1.9.05-2.9.14-3.03.17-.23.48-.38.93-.45.19-.04.55-.06 1.07-.06.32 0 .48-.1.48-.28 0-.12-.04-.2-.14-.26-.1-.05-.45-.08-1.07-.08l-4.24.03c-.13.35-.28.8-.45 1.35l-3 9.35c-.37 1.19-.74 2.4-1.1 3.62a1055.43 1055.43 0 00-5.3-14.32c-.46.02-1.24.02-2.35.02H2.06a8.1 8.1 0 00-.48-.02c-.55 0-.82.1-.82.3 0 .16.15.24.45.26a6.8 6.8 0 011.58.23c.25.1.4.27.48.53.04.14.06.98.06 2.55v13.53c0 .83-.04 1.32-.11 1.47-.08.15-.34.22-.8.22-1.07.02-1.6.13-1.6.31 0 .17.16.26.5.26l3.25-.09.7.03c.22.02.44.03.69.03.4 0 .59-.1.59-.28 0-.17-.31-.26-.93-.26-.77 0-1.23-.12-1.36-.36-.05-.04-.08-1.78-.08-5.23v-9.44c0-.5-.02-.9-.03-1.21l1.13 3.02A410.6 410.6 0 019.9 43.07c.15.45.3.68.43.68.1 0 .3-.45.56-1.33l1.33-4.5a730.71 730.71 0 013.59-11.27v14.86c-.01 1.03-.06 1.58-.15 1.67-.2.2-.79.31-1.75.31-.54 0-.82.1-.82.28 0 .17.2.26.6.26h1.72a80.36 80.36 0 015.03.03h.3zm7.66.28c1.35 0 2.43-.42 3.24-1.24.3-.3.6-.7.9-1.18.29-.48.43-.81.43-1 0-.13-.07-.2-.22-.2-.14 0-.24.08-.32.23A6.21 6.21 0 0131 42.9c-.46.34-1.06.5-1.81.5a3.53 3.53 0 01-3.07-1.53c-.72-1.03-1.08-2.5-1.08-4.4 0-.56.04-1.15.14-1.78l3.39-.08 1.97.03c1 .02 1.8-.02 2.4-.12a4.06 4.06 0 00-1.44-3 4.96 4.96 0 00-3.36-1.18c-1.62 0-2.97.63-4.05 1.9a6.99 6.99 0 00-1.63 4.71c0 1.81.57 3.33 1.71 4.55a5.57 5.57 0 004.26 1.84zm2.11-9.18h-5.28c.38-2.26 1.33-3.4 2.85-3.4 1.55 0 2.36 1.14 2.43 3.4zm9.47 8.9c.24 0 .37-.07.37-.2 0-.15-.1-.23-.32-.23l-.3.03h-.23c-.47 0-.75-.05-.84-.15-.08-.1-.12-.44-.12-1v-8.03c0-.66.23-1.2.69-1.64a2.44 2.44 0 011.74-.65c.7 0 1.18.2 1.45.62s.41 1.17.41 2.26v7.88l-.03.4c-.02.17-.18.26-.48.28-.64 0-1.01.01-1.13.03-.11.02-.17.08-.17.17 0 .15.12.23.34.23h.37l1.09-.03 1.5-.03c1.1 0 1.74.02 1.93.06h.2c.28 0 .42-.07.42-.2 0-.15-.12-.23-.37-.23h-.82c-.28 0-.45-.11-.5-.34-.02-.09-.03-.45-.03-1.07v-5.63c0-1.63.04-2.58.11-2.84.17-.46.47-.83.89-1.12.42-.3.88-.44 1.37-.44.7 0 1.2.23 1.48.7.3.46.44 1.23.44 2.32v7.01c0 .68-.02 1.07-.07 1.19-.05.11-.21.18-.5.2l-.7.02h-.23c-.2 0-.3.08-.3.23 0 .13.12.2.36.2l3-.06a30.48 30.48 0 012.09.06c.32 0 .48-.08.48-.23 0-.15-.1-.22-.31-.2l-.51.03c-.53-.04-.83-.09-.9-.15-.06-.07-.1-.42-.1-1.06v-6.98c0-1.23-.12-2.1-.39-2.63-.49-1-1.43-1.5-2.82-1.5-1.62 0-2.8.63-3.53 1.9-.36-1.27-1.38-1.9-3.05-1.9-1.57 0-2.73.6-3.48 1.81-.02-.9-.04-1.43-.06-1.58-.01-.15-.07-.23-.17-.23-.09 0-.24.1-.45.31-.1.16-.46.33-1.11.54-.65.2-1.2.32-1.63.34-.53.04-.83.07-.92.09-.08.01-.12.08-.12.2 0 .12.12.2.36.2.2 0 .37-.02.54-.04h.4c.49 0 .76.12.82.37.05.24.08 1.07.08 2.49v7.34c-.02.17-.08.29-.2.35a4 4 0 01-1.24.1c-.25 0-.37.07-.37.2 0 .15.13.23.4.23L37.6 44c.96-.02 1.66 0 2.12.06H40zm20.48.28c1.66 0 3.04-.62 4.15-1.85a6.6 6.6 0 001.67-4.6c0-1.86-.57-3.41-1.71-4.67a5.51 5.51 0 00-4.25-1.88c-1.68 0-3.08.63-4.2 1.87a6.74 6.74 0 00-1.68 4.69c0 1.82.58 3.36 1.73 4.59a5.63 5.63 0 004.29 1.85zm.14-.4c-1.13 0-2.01-.53-2.64-1.6-.63-1.06-.95-2.54-.95-4.44 0-1.92.3-3.42.9-4.5.59-1.1 1.41-1.63 2.46-1.63 1.12 0 1.9.42 2.38 1.27.64 1.15.96 2.76.96 4.83 0 2.15-.4 3.84-1.19 5.08-.41.66-1.05 1-1.92 1zm12.97.12c.24 0 .36-.07.36-.2 0-.11-.1-.19-.3-.23a7.21 7.21 0 01-1.46-.11c-.16-.06-.24-.2-.24-.42v-5.6c0-2.09.22-3.52.65-4.3.37-.65.83-.98 1.35-.98.42 0 .63.14.63.42 0 .08-.09.21-.26.4a.98.98 0 00-.25.68c0 .3.11.55.34.75.22.2.5.3.84.3.42 0 .76-.15 1.02-.43s.4-.64.4-1.08c0-.54-.2-1-.6-1.37-.4-.36-.9-.55-1.5-.55-1.09 0-1.93.66-2.54 1.98v-.56c0-.46-.03-.9-.11-1.36l-.23.09-.36.16c-.85.4-1.62.6-2.32.6l-.27-.03-.1-.01a8.51 8.51 0 00-.84-.05h-.2c-.19 0-.28.07-.28.2s.1.2.33.2c.68.02 1.18.1 1.49.27.3.16.46.76.46 1.8v7.94c0 .5-.02.8-.05.87-.12.15-.5.22-1.13.22h-.4c-.24 0-.37.07-.37.2s.16.2.46.2c.37 0 .68-.01.93-.03a52.28 52.28 0 013.33 0c.38.02.78.03 1.22.03zm6.55-16.56c.85 0 1.27-.42 1.27-1.27 0-.85-.42-1.27-1.27-1.27-.85 0-1.27.44-1.27 1.33 0 .34.12.62.37.86.24.23.54.35.9.35zm2.91 16.58c.32 0 .48-.08.48-.25 0-.15-.13-.23-.4-.23-.54 0-.95-.03-1.24-.1-.17-.05-.27-.13-.3-.26-.02-.13-.04-.58-.04-1.33V34.2c0-.51.01-.88.03-1.1v-.53a3.2 3.2 0 00-.22-1.31l-.29.17c-.9.54-1.98.85-3.25.9-.32.02-.48.1-.48.23 0 .15.1.22.31.22.12 0 .21 0 .29-.02l.82-.03c.2 0 .32.04.35.13.03.08.05.36.07.83l.03 8.56c0 .7-.03 1.09-.1 1.17-.07.09-.46.14-1.17.16-.38 0-.57.09-.57.28 0 .13.1.2.31.2.14 0 .25-.01.34-.03l2.94-.06a21.9 21.9 0 012.1.11zm4.55.26c1.5 0 2.62-.7 3.33-2.1.06 1.35.74 2.01 2.04 2.01.62 0 1.26-.17 1.93-.52.67-.35 1-.68 1-1 0-.11-.04-.17-.14-.17s-.23.1-.42.31c-.34.38-.77.57-1.3.57-.45 0-.73-.34-.82-1.02a21.2 21.2 0 01-.03-1.53v-5.28c0-1.28-.08-2.14-.25-2.57-.47-1.13-1.74-1.7-3.82-1.7-1.37 0-2.44.35-3.22 1.05a3 3 0 00-1.04 2.29c0 .45.14.82.42 1.11.28.3.64.44 1.08.44.82 0 1.24-.41 1.24-1.24 0-.28-.1-.54-.28-.76-.2-.23-.4-.34-.64-.34-.23 0-.35-.08-.35-.23 0-.55.22-1 .66-1.36.44-.35 1-.53 1.65-.53 1.06 0 1.74.48 2.04 1.44.17.53.25 1.62.25 3.28v.7c-1.58.3-2.7.6-3.33.9-1.87.91-2.8 2.13-2.8 3.68 0 .75.27 1.37.8 1.85.52.48 1.19.72 2 .72zm1.21-1.27c-.52 0-.96-.2-1.31-.58a2.13 2.13 0 01-.52-1.48c0-.87.3-1.56.92-2.08a7.3 7.3 0 013.03-1.26v2.06c0 1.12-.05 1.77-.17 1.98-.49.9-1.14 1.36-1.95 1.36zm6.8 1.02h.1l.34-.03 2.26-.09.87.03 1.5.06h.34c.24 0 .37-.09.37-.26 0-.13-.22-.2-.65-.2a8 8 0 01-1.05-.05c-.11-.04-.18-.11-.2-.21a9.3 9.3 0 01-.03-1l-.02-13.85.02-2a9.48 9.48 0 00-.2-2.5l-.22.1-.6.28c-.77.35-1.6.56-2.5.62-.48.02-.71.1-.71.25 0 .17.13.26.4.26l.78-.03h.23c.24 0 .4.07.45.22.04.06.06.4.06 1.02v14.86c0 1.05-.01 1.62-.03 1.72 0 .23-.26.34-.8.34h-.73c-.2 0-.3.07-.3.2 0 .19.13.27.42.25h-.1zM21.1 22.68a7.5 7.5 0 004.95-1.97c.51.23 1 .71 1.44 1.45.13.2.24.3.34.3.1 0 .15-.1.15-.33 0-.2 0-.38-.03-.53a24.76 24.76 0 01.1-3.63l.15-1.93.03-.52c.02-.27-.07-.4-.28-.4-.18 0-.34.31-.49.95-.9 3.85-2.8 5.78-5.69 5.78-1.33 0-2.4-.47-3.23-1.41-1.55-1.79-2.33-4.6-2.33-8.43 0-2.58.33-4.8.98-6.64.94-2.7 2.46-4.06 4.55-4.06 2.65 0 4.34 1.84 5.08 5.53.16.8.32 1.2.49 1.2.2 0 .3-.18.3-.55V5.37a90.9 90.9 0 01-.02-1.26 15.2 15.2 0 01.21-2.86c0-.15-.04-.22-.12-.22-.06 0-.23.15-.5.43-.36.4-.76.59-1.2.59-.28 0-.73-.18-1.35-.53A7.13 7.13 0 0021 .6a9.6 9.6 0 00-7.33 3.15 11.08 11.08 0 00-2.94 7.86c0 3.24 1.09 5.93 3.26 8.06a9.85 9.85 0 007.1 3.01zm19.47-.06a9.14 9.14 0 007.06-3.18 11.2 11.2 0 002.88-7.8c0-3.11-.94-5.72-2.8-7.82A8.92 8.92 0 0040.76.66a9.43 9.43 0 00-7.21 3.14c-1.94 2.1-2.9 4.7-2.9 7.81 0 3.03.96 5.63 2.91 7.78a9.13 9.13 0 007.01 3.23zm.37-.5a3.04 3.04 0 01-2.67-1.35c-1.48-2.15-2.22-5.4-2.22-9.74 0-3 .42-5.38 1.25-7.17.83-1.78 1.94-2.67 3.33-2.67 1.38 0 2.38.63 3.02 1.9.96 1.95 1.44 4.96 1.44 9.04 0 3.37-.43 6.05-1.29 8.06-.55 1.3-1.5 1.94-2.86 1.94zm19.88.35c.14 0 .38-.52.7-1.54a925.12 925.12 0 016-17.31c.33-.97.63-1.55.9-1.76.29-.2.97-.33 2.05-.37.2-.02.31-.1.31-.24 0-.23-.15-.34-.46-.34h-1.54l-.7.03h-.8L66.2.91h-1.45c-.28 0-.43.1-.43.28 0 .2.2.3.62.3.82.02 1.3.04 1.41.07.31.06.46.27.46.64 0 .62-.48 2.33-1.44 5.14l-1.3 3.75c-.7 2.07-1.2 3.43-1.47 4.09a214.75 214.75 0 01-4.64-13.1c0-.35.58-.54 1.75-.56.72-.02 1.08-.1 1.08-.27 0-.19-.2-.28-.59-.28h-1.72c-.43 0-.82.01-1.17.03h-.83l-5.2-.03c-.73 0-1.1.1-1.1.28 0 .18.12.27.37.27l1.01-.03c.84-.02 1.4.4 1.66 1.26a72.04 72.04 0 001.54 4.31 827 827 0 014.58 12 51.1 51.1 0 011.02 2.85c.12.37.27.56.46.56zM70.79 1c-.36 0-.57.01-.64.03-.08.02-.13.1-.13.25 0 .14.3.21.87.21 1.02 0 1.53.26 1.53.77l.03.53v16.18c0 1.24-.05 1.98-.15 2.22-.1.26-.47.45-1.1.57a14 14 0 00-1.2.06c-.1.02-.16.08-.16.18 0 .19.15.28.46.28l1.32-.03a64.76 64.76 0 017.63.03c.27 0 .4-.08.4-.25 0-.14-.1-.22-.28-.24-1.13-.06-1.79-.18-1.98-.34-.2-.16-.3-.69-.3-1.57V2.51l.1-.59c.14-.22.53-.35 1.17-.4.53-.02.84-.04.94-.07.09-.03.13-.11.13-.23 0-.17-.13-.25-.4-.25h-.3l-1.28.05c-.6.03-1.07.04-1.4.04h-1.57A114.1 114.1 0 0170.9 1h.01-.12zm17.73 21.28c2.85 0 4.99-.28 6.42-.83a9.56 9.56 0 004.83-3.9c1.07-1.7 1.6-3.73 1.6-6.06 0-3.49-1.24-6.2-3.72-8.12-1.99-1.54-4.85-2.3-8.58-2.3l-3.81-.04C84.1 1.01 82.92 1 81.69 1h-.55c-.29 0-.43.1-.43.28 0 .22.22.33.67.3.84-.01 1.37.16 1.57.53.12.2.19.76.19 1.66v15.87c-.01.97-.05 1.52-.13 1.66-.18.32-.71.48-1.6.46-.57-.02-.86.07-.86.27 0 .17.16.25.46.25l1.94-.03 1.96-.03h1.43a34.38 34.38 0 012.18.06zm1.13-.55c-.84 0-1.38-.12-1.63-.34-.16-.14-.24-.9-.24-2.25V3.4c0-.76.16-1.24.5-1.44.24-.17.75-.25 1.53-.25 2.15 0 3.73.78 4.73 2.35 1 1.57 1.51 4.05 1.51 7.43 0 6.82-2.13 10.24-6.4 10.24zM8.13 16.29c0-.12-.03-.17-.1-.17-.05 0-.08.04-.1.12 0 .33-.02.52-.05.6-.07.13-.22.2-.48.2H1.07l-.03-.6c0-.14.01-.31.05-.53.07-.34.21-.58.44-.73.18-.1.4-.19.64-.24l.38-.04c.18-.03.28-.1.28-.18 0-.08-.05-.12-.14-.12h-.06a29.79 29.79 0 01-1.82.15l.03 1.75c.02.53.02.92.01 1.17l-.03 2.14v.48l1.27.1.24.01.23.01c.15 0 .22-.04.22-.12 0-.08-.1-.13-.31-.15-.7-.08-1.13-.34-1.3-.78a5.2 5.2 0 01-.1-1.29h6.3c.22 0 .37.02.42.05.1.07.14.2.14.42 0 .3.04.46.1.46.06 0 .09-.09.09-.25a23.37 23.37 0 00-.02-1.42 30.9 30.9 0 01.03-1.04zm0-6.53a12.54 12.54 0 00-.02-.86V7.46c0-.14-.02-.2-.09-.2-.07 0-.1.05-.08.16 0 .34-.04.54-.12.61-.05.04-.25.06-.58.06h-5.6c-.26 0-.43-.01-.48-.03-.06-.02-.1-.06-.12-.13a.69.69 0 01-.02-.2c0-.3-.04-.46-.1-.46-.07 0-.1.07-.1.22l.01.29.01.86v.09l-.01.48v.57c0 .12.03.17.1.17.06 0 .09-.05.09-.15 0-.34.02-.54.09-.6.07-.05.28-.07.66-.07h2.25v3.16H1.61c-.28 0-.45-.03-.5-.07-.05-.05-.08-.18-.08-.41 0-.23-.03-.34-.1-.34-.06 0-.1.06-.1.19l.01.18.01.75v.2a17.6 17.6 0 01-.03 1.22c0 .09.03.13.08.13s.08-.02.09-.05l.03-.39c0-.19.04-.3.1-.33.05-.03.24-.05.55-.05h5.54c.36 0 .56.02.6.04.05.04.08.14.1.29l.02.28c.01.14.05.21.1.21.06 0 .09-.07.09-.2a27.02 27.02 0 00-.02-1.33 14.52 14.52 0 01.02-.86v-.1c0-.13-.03-.2-.1-.2-.05 0-.08.09-.1.27-.01.28-.05.44-.1.5-.06.04-.25.07-.56.07H4.29V9.13h3.06c.28 0 .44 0 .49.04.04.02.07.13.09.3.02.33.06.5.11.5.06 0 .09-.08.09-.22zm.05-8.66h-.35a20.37 20.37 0 01-1.41-.04c-.15 0-.22.04-.22.1 0 .08.08.13.26.14.79.07 1.24.33 1.34.79.07.27.1 1.17.1 2.7H4.37v-.46c0-.54.02-.86.06-.99.1-.29.36-.46.77-.51l.58-.1c.06-.01.09-.04.09-.1 0-.07-.05-.1-.14-.1h-.17c-.28.03-.8.04-1.55.04h-.08a12.93 12.93 0 01-1.03-.04c-.13 0-.19.04-.19.12 0 .06.07.1.22.11.57.07.92.18 1.04.35.12.18.18.65.18 1.44v.25H1.07v-.86c0-.95.06-1.54.2-1.77.16-.3.56-.51 1.19-.65.17-.03.26-.09.26-.16s-.03-.1-.1-.1l-.14.01-.45.04-1.25.1c.03.17.04.37.04.58v1.47l.01 1.07v.11l-.01 1.8c0 .15.03.23.1.23.06 0 .09-.06.09-.17 0-.32.02-.51.06-.57.04-.06.16-.1.36-.1h5.9c.27 0 .43.03.5.07.06.03.1.15.1.33l.04.4c0 .04.03.06.07.06.07 0 .1-.07.1-.2V5.9l-.01-.72c0-2.03.02-3.4.05-4.08z"/></g></svg>