<svg xmlns="http://www.w3.org/2000/svg" viewBox="0 0 34 34">
    <defs/>
    <g fill="none" fill-rule="evenodd">
        <circle cx="17" cy="17" r="17" fill="#323232"/>
        <path fill="#FFF" fill-rule="nonzero" d="M27 11c-.7.3-1.5.5-2.2.6a4 4 0 001.7-2.3c-.8.5-1.6.8-2.5 1A3.8 3.8 0 0021.2 9a4 4 0 00-4 4c0 .4 0 .7.2 1-3.3-.2-6.2-1.8-8-4.2-.4.6-.6 1.3-.6 2a4 4 0 001.7 3.4c-.6 0-1.2-.2-1.7-.5a4 4 0 003 4 3.8 3.8 0 01-1.7 0 4 4 0 003.7 2.9A7.7 7.7 0 018 23.2c1.7 1.2 3.8 1.8 6 1.8C21 25 25 19 25 13.6V13a8 8 0 002-2z"/>
    </g>
</svg>