<svg xmlns="http://www.w3.org/2000/svg" viewBox="0 0 34 34">
    <defs/>
    <g fill="none" fill-rule="evenodd">
        <circle cx="17" cy="17" r="17" fill="#323232"/>
        <g fill="#FFFFFF">
            <path d="M17.72 24.32a7.8 7.8 0 01-4.31-1.29l-3 .96.97-2.88a7.7 7.7 0 01-1.45-5.31 7.81 7.81 0 017.79-7.02 7.81 7.81 0 017.83 7.77 7.8 7.8 0 01-7.83 7.77zm9.3-8c-.12-5-4.24-9-9.3-9a9.28 9.28 0 00-9.31 9.23c0 1.75.48 3.38 1.33 4.78l-1.68 4.95 5.16-1.64a9.33 9.33 0 0013.8-8.09v-.23z"/>
            <path d="M21.98 18.42c-.23-.11-1.35-.66-1.56-.74-.2-.08-.36-.11-.51.12-.15.22-.6.73-.72.88-.14.15-.27.17-.5.06-.23-.12-.96-.35-1.84-1.13a6.77 6.77 0 01-1.26-1.56c-.14-.23-.02-.35.1-.47.1-.1.22-.26.34-.4l.08-.1.15-.27c.07-.15.04-.28-.02-.4-.06-.11-.52-1.23-.7-1.68-.2-.45-.39-.38-.52-.38l-.44-.02c-.15 0-.4.06-.6.29-.22.22-.8.77-.8 1.89 0 .26.04.52.11.77.23.8.73 1.46.82 1.57.11.15 1.58 2.51 3.9 3.42 2.32.9 2.32.6 2.74.56.41-.03 1.35-.54 1.53-1.07.2-.53.2-.98.14-1.08-.06-.1-.2-.15-.44-.26"/>
        </g>
    </g>
</svg>