<svg xmlns="http://www.w3.org/2000/svg" viewBox="0 0 41 41"><g fill="none" fill-rule="nonzero" transform="translate(2 2)"><g fill="#000"><g transform="rotate(-90 18.8 9.8)"><rect width="7.1" height="2" rx="1"/><path d="M3 1.6l6.1 6a1 1 0 01-1.4 1.5L1.6 3A1 1 0 113 1.6z"/><path d="M2 1v5.1a1 1 0 01-2 0v-5a1 1 0 012 0z"/></g><g transform="rotate(90 9.8 18.8)"><rect width="7.1" height="2" rx="1"/><path d="M3 1.6l6.1 6a1 1 0 01-1.4 1.5L1.6 3A1 1 0 113 1.6z"/><path d="M2 1v5.1a1 1 0 01-2 0v-5a1 1 0 012 0z"/></g></g></g></svg>